HIERARCHY
ROOT Hips
{
	OFFSET	0.00	0.00	0.00
	CHANNELS 6 Xposition Yposition Zposition Zrotation Xrotation Yrotation
	JOINT LeftUpLeg
	{
		OFFSET	 0.126116	-0.014019	-0.065224
		CHANNELS 3 Zrotation Xrotation Yrotation
		JOINT LeftLeg
		{
			OFFSET	 0.000000	 0.000000	 0.569914
			CHANNELS 3 Zrotation Xrotation Yrotation
			JOINT LeftFoot
			{
				OFFSET	 0.000000	 0.000000	 0.544423
				CHANNELS 3 Zrotation Xrotation Yrotation
				JOINT LeftToeBase
				{
					OFFSET	 0.000000	 0.000000	 0.207117
					CHANNELS 3 Zrotation Xrotation Yrotation
					End Site
					{
						OFFSET	 0.000000	 0.000000	 0.207117
					}
				}
			}
		}
	}
	JOINT RightUpLeg
	{
		OFFSET	-0.124023	-0.008373	-0.065224
		CHANNELS 3 Zrotation Xrotation Yrotation
		JOINT RightLeg
		{
			OFFSET	 0.000000	 0.000000	 0.570047
			CHANNELS 3 Zrotation Xrotation Yrotation
			JOINT RightFoot
			{
				OFFSET	 0.000000	 0.000000	 0.544354
				CHANNELS 3 Zrotation Xrotation Yrotation
				JOINT RightToeBase
				{
					OFFSET	 0.000000	 0.000000	 0.207540
					CHANNELS 3 Zrotation Xrotation Yrotation
					End Site
					{
						OFFSET	 0.000000	 0.000000	 0.207540
					}
				}
			}
		}
	}
	JOINT Spine
	{
		OFFSET	 0.000184	-0.007763	 0.117403
		CHANNELS 3 Zrotation Xrotation Yrotation
		JOINT Spine1
		{
			OFFSET	 0.000000	 0.000000	 0.137269
			CHANNELS 3 Zrotation Xrotation Yrotation
			JOINT Spine2
			{
				OFFSET	 0.000000	 0.000000	 0.156879
				CHANNELS 3 Zrotation Xrotation Yrotation
				JOINT LeftShoulder
				{
					OFFSET	 0.080501	-0.002496	 0.160144
					CHANNELS 3 Zrotation Xrotation Yrotation
					JOINT LeftArm
					{
						OFFSET	 0.000000	 0.000000	 0.164363
						CHANNELS 3 Zrotation Xrotation Yrotation
						JOINT LeftForeArm
						{
							OFFSET	 0.000000	 0.000000	 0.364576
							CHANNELS 3 Zrotation Xrotation Yrotation
							JOINT LeftHand
							{
								OFFSET	 0.000000	 0.000000	 0.360812
								CHANNELS 3 Zrotation Xrotation Yrotation
								JOINT LeftHandIndex1
								{
									OFFSET	 0.000000	 0.000000	 0.086006
									CHANNELS 3 Zrotation Xrotation Yrotation
									JOINT LeftHandIndex2
									{
										OFFSET	 0.000000	 0.000000	 0.047236
										CHANNELS 3 Zrotation Xrotation Yrotation
										JOINT LeftHandIndex3
										{
											OFFSET	-0.004284	-0.000551	 0.038166
											CHANNELS 3 Zrotation Xrotation Yrotation
											End Site
											{
												OFFSET	-0.004284	-0.000551	 0.038166
											}
										}
									}
								}
							}
						}
					}
				}
				JOINT Neck
				{
					OFFSET	 0.000000	 0.000000	 0.176489
					CHANNELS 3 Zrotation Xrotation Yrotation
					JOINT Head
					{
						OFFSET	 0.000000	-0.001747	 0.077940
						CHANNELS 3 Zrotation Xrotation Yrotation
						End Site
						{
							OFFSET	 0.000000	-0.001747	 0.077940
						}
					}
				}
				JOINT RightShoulder
				{
					OFFSET	-0.080363	 0.000306	 0.159706
					CHANNELS 3 Zrotation Xrotation Yrotation
					JOINT RightArm
					{
						OFFSET	 0.000000	 0.000000	 0.164196
						CHANNELS 3 Zrotation Xrotation Yrotation
						JOINT RightForeArm
						{
							OFFSET	 0.000000	 0.000000	 0.365611
							CHANNELS 3 Zrotation Xrotation Yrotation
							JOINT RightHand
							{
								OFFSET	 0.000000	 0.000000	 0.360648
								CHANNELS 3 Zrotation Xrotation Yrotation
								JOINT RightHandIndex1
								{
									OFFSET	 0.000000	 0.000000	 0.069977
									CHANNELS 3 Zrotation Xrotation Yrotation
									JOINT RightHandIndex2
									{
										OFFSET	 0.000000	 0.000000	 0.052305
										CHANNELS 3 Zrotation Xrotation Yrotation
										JOINT RightHandIndex3
										{
											OFFSET	 0.009002	-0.000782	 0.042196
											CHANNELS 3 Zrotation Xrotation Yrotation
											End Site
											{
												OFFSET	 0.009002	-0.000782	 0.042196
											}
										}
									}
								}
							}
						}
					}
				}
			}
		}
	}
}
MOTION
Frames:    12
Frame Time: 0.03333334
-0.000401	 0.019963	 1.267897	 0.003742	 0.009123	-0.054810	-4.824045	-2.911150	 178.698700	 1.435901	-14.630860	-0.860507	-6.970974	 72.678280	 0.808782	-2.385833	 28.452760	 0.000004	 4.702473	-3.409031	-178.585200	-1.414507	-15.189880	 0.878500	 6.843116	 72.802940	-0.834094	 2.384658	 28.388730	 0.000004	 1.307153	 2.715807	-0.001202	 0.678367	 3.674297	 0.341270	-2.038798	-4.672302	-0.481510	-91.776210	 78.527430	-180.000000	 65.631600	 42.879400	-55.262810	-7.845943	 3.801031	-9.541369	-29.071970	 3.964222	-4.360204	-2.635965	 4.993658	 6.788941	-5.165319	 0.784187	 3.516649	-5.225038	 0.466231	 0.424329	-0.000002	-3.783157	-0.089647	-1.970141	 5.020153	 0.086359	 89.782120	 78.203890	 180.000000	-63.682520	 41.651390	 54.371440	 7.259811	 5.359813	 12.451390	 28.081140	 2.962378	 8.846122	 6.112037	 4.509576	-0.364401	 4.968462	 1.518543	-9.347576	 5.168945	 0.703820	 2.021906
-0.000403	 0.020117	 1.265601	 0.003742	 0.009113	-0.054760	-4.921890	-3.767270	 178.771200	 1.406656	-16.394960	-0.969838	-7.531297	 73.571020	 1.394857	-2.385833	 28.452760	 0.000004	 4.801357	-4.237123	-178.654100	-1.385668	-16.896100	 0.982842	 7.379065	 73.666480	-1.394407	 2.384658	 28.388730	 0.000004	 1.307106	 2.717609	-0.001281	 0.678282	 3.668088	 0.341309	-2.038578	-4.664394	-0.481279	-91.776120	 78.527470	 179.999900	 65.604890	 42.889280	-55.229690	-7.838101	 3.808151	-9.559533	-29.071990	 3.964226	-4.360204	-2.635965	 4.993658	 6.788941	-5.165319	 0.784187	 3.516649	-5.225038	 0.466231	 0.424329	-0.000002	-3.783157	-0.089647	-1.970064	 5.023853	 0.086420	 89.782160	 78.203870	 179.999900	-63.609870	 41.375790	 54.644890	 6.863494	 5.268923	 12.479760	 28.106790	 2.704439	 8.688303	 6.112037	 4.509576	-0.364401	 4.968462	 1.518543	-9.347576	 5.168945	 0.703820	 2.021906
-0.000406	 0.020364	 1.261938	 0.003759	 0.009101	-0.054713	-5.073359	-4.975226	 178.873400	 1.358813	-18.885670	-1.127669	-8.439641	 74.829260	 2.339835	-2.385833	 28.452760	 0.000004	 4.954633	-5.414450	-178.751900	-1.338480	-19.323270	 1.134617	 8.251694	 74.892740	-2.301941	 2.384658	 28.388730	 0.000004	 1.306921	 2.720504	-0.001382	 0.678085	 3.658135	 0.341294	-2.038069	-4.651720	-0.480830	-91.776130	 78.527470	 180.000000	 65.543790	 42.910720	-55.155400	-7.821565	 3.819212	-9.587637	-29.071960	 3.964215	-4.360199	-2.635965	 4.993658	 6.788941	-5.165319	 0.784187	 3.516649	-5.225038	 0.466231	 0.424329	-0.000002	-3.783157	-0.089647	-1.969801	 5.029803	 0.086511	 89.782110	 78.203920	 180.000000	-63.479350	 40.736210	 55.506170	 6.081795	 4.942646	 12.184800	 28.303270	 2.132452	 8.348422	 6.112037	 4.509576	-0.364401	 4.968462	 1.518543	-9.347576	 5.168945	 0.703820	 2.021906
-0.000408	 0.020584	 1.258721	 0.003764	 0.009080	-0.054661	-5.203445	-5.924754	 178.953700	 1.315492	-20.844930	-1.255141	-9.271914	 75.816700	 3.201148	-2.385833	 28.452760	 0.000004	 5.086313	-6.344987	-178.829100	-1.295748	-21.242860	 1.257870	 9.053134	 75.860300	-3.131250	 2.384658	 28.388730	 0.000004	 1.306655	 2.723063	-0.001467	 0.677862	 3.649352	 0.341342	-2.037480	-4.640505	-0.480442	-91.776210	 78.527430	-180.000000	 65.467390	 42.932340	-55.061260	-7.803285	 3.828706	-9.611721	-29.071980	 3.964199	-4.360213	-2.635965	 4.993658	 6.788941	-5.165319	 0.784187	 3.516649	-5.225038	 0.466231	 0.424329	-0.000002	-3.783157	-0.089647	-1.969423	 5.035095	 0.086585	 89.782030	 78.203850	-180.000000	-63.146020	 40.049510	 56.567840	 5.230705	 4.552007	 11.739970	 28.504020	 1.570069	 8.017662	 6.112037	 4.509576	-0.364401	 4.968462	 1.518543	-9.347576	 5.168945	 0.703820	 2.021906
-0.000409	 0.020820	 1.255314	 0.003769	 0.009059	-0.054600	-5.339038	-6.847009	 179.031600	 1.268286	-22.749090	-1.382252	-10.203860	 76.773700	 4.161554	-2.385833	 28.452760	 0.000004	 5.223616	-7.251909	-178.904300	-1.249186	-23.114800	 1.381195	 9.951694	 76.801260	-4.057198	 2.384658	 28.388730	 0.000004	 1.306265	 2.725787	-0.001551	 0.677568	 3.640015	 0.341341	-2.036654	-4.628600	-0.479969	-91.776180	 78.527430	 180.000000	 65.356130	 42.953400	-54.918990	-7.780252	 3.839535	-9.639251	-29.071930	 3.964202	-4.360211	-2.635965	 4.993658	 6.788941	-5.165319	 0.784187	 3.516649	-5.225038	 0.466231	 0.424329	-0.000002	-3.783157	-0.089647	-1.968863	 5.040761	 0.086658	 89.782110	 78.203850	 180.000000	-62.331340	 39.036850	 57.592100	 3.898225	 4.295459	 11.898410	 28.371100	 0.865998	 7.453511	 6.112037	 4.509576	-0.364401	 4.968462	 1.518543	-9.347576	 5.168945	 0.703820	 2.021906
-0.000409	 0.021020	 1.252496	 0.003770	 0.009047	-0.054543	-5.449510	-7.556261	 179.091500	 1.228344	-24.214260	-1.482489	-11.021040	 77.507740	 5.000803	-2.385833	 28.452760	 0.000004	 5.335486	-7.951109	-178.962300	-1.209784	-24.558700	 1.478687	 10.740150	 77.524930	-4.866943	 2.384658	 28.388730	 0.000004	 1.305860	 2.728044	-0.001614	 0.677286	 3.632231	 0.341279	-2.035857	-4.618697	-0.479535	-91.776170	 78.527490	 180.000000	 65.242140	 42.968720	-54.759380	-7.843767	 3.850262	-9.666472	-28.989370	 3.975137	-4.346745	-2.635965	 4.993658	 6.788941	-5.165319	 0.784187	 3.516649	-5.225038	 0.466231	 0.424329	-0.000002	-3.783157	-0.089647	-1.968268	 5.045423	 0.086712	 89.782100	 78.203900	 180.000000	-60.991200	 37.842610	 57.768200	 2.313069	 4.511468	 13.621290	 27.947020	 0.186386	 6.733388	 6.112037	 4.509576	-0.364401	 4.968462	 1.518543	-9.347576	 5.168945	 0.703820	 2.021906
-0.000409	 0.021273	 1.249065	 0.003791	 0.009037	-0.054485	-5.583081	-8.370936	 179.160300	 1.178323	-25.898130	-1.600589	-12.090770	 78.348290	 6.096072	-2.385833	 28.452760	 0.000004	 5.470670	-8.755714	-179.029000	-1.160439	-26.221030	 1.593763	 11.772390	 78.355100	-5.923886	 2.384658	 28.388730	 0.000004	 1.305248	 2.730804	-0.001678	 0.676874	 3.622761	 0.341234	-2.034727	-4.606626	-0.478999	-91.776180	 78.527450	 180.000000	 65.051280	 42.972290	-54.497100	-7.841621	 3.862478	-9.697609	-28.963120	 3.978639	-4.342464	-2.635965	 4.993658	 6.788941	-5.165319	 0.784187	 3.516649	-5.225038	 0.466231	 0.424329	-0.000002	-3.783157	-0.089647	-1.967385	 5.051165	 0.086772	 89.782070	 78.203900	-180.000000	-58.622210	 36.096920	 58.696070	 0.093517	 4.438819	 15.331500	 27.147560	-0.672164	 5.646327	 6.112037	 4.509576	-0.364401	 4.968462	 1.518543	-9.347576	 5.168945	 0.703820	 2.021906
-0.000409	 0.021509	 1.245978	 0.003786	 0.009016	-0.054429	-5.702133	-9.063172	 179.218800	 1.132138	-27.329730	-1.703676	-13.132500	 79.059630	 7.159687	-2.385833	 28.452760	 0.000004	 5.591199	-9.440426	-179.085800	-1.114875	-27.636410	 1.694364	 12.777650	 79.058910	-6.950339	 2.384658	 28.388730	 0.000004	 1.304609	 2.733294	-0.001728	 0.676466	 3.614206	 0.341143	-2.033544	-4.595726	-0.478456	-91.776180	 78.527490	 180.000000	 64.832090	 42.960110	-54.191560	-7.839991	 3.871444	-9.720408	-28.937430	 3.982049	-4.338274	-2.635965	 4.993658	 6.788941	-5.165319	 0.784187	 3.516649	-5.225038	 0.466231	 0.424329	-0.000002	-3.783157	-0.089647	-1.966447	 5.056338	 0.086820	 89.782110	 78.203890	 180.000000	-55.889930	 34.409630	 61.133440	-1.934093	 3.725934	 14.887130	 26.263610	-1.373115	 4.580786	 6.112037	 4.509576	-0.364401	 4.968462	 1.518543	-9.347576	 5.168945	 0.703820	 2.021906
-0.000409	 0.021750	 1.242717	 0.003801	 0.009006	-0.054331	-5.823206	-9.738361	 179.275900	 1.083644	-28.726750	-1.806875	-14.291340	 79.750150	 8.340030	-2.385833	 28.452760	 0.000004	 5.713693	-10.109070	-179.141300	-1.067024	-29.019120	 1.795193	 13.895620	 79.743030	-8.089177	 2.384658	 28.388730	 0.000004	 1.303847	 2.735846	-0.001791	 0.675992	 3.605394	 0.341012	-2.032191	-4.584531	-0.477871	-91.776180	 78.527470	 180.000000	 64.553570	 42.926800	-53.790390	-7.837681	 3.884897	-9.754615	-28.909060	 3.985795	-4.333672	-2.635965	 4.993658	 6.788941	-5.165319	 0.784187	 3.516649	-5.225038	 0.466231	 0.424329	-0.000002	-3.783157	-0.089647	-1.965323	 5.061617	 0.086861	 89.782240	 78.203870	 179.999900	-52.333440	 32.213170	 63.588470	-4.165483	 3.148924	 15.102700	 24.924390	-1.870604	 3.350347	 6.112037	 4.509576	-0.364401	 4.968462	 1.518543	-9.347576	 5.168945	 0.703820	 2.021906
-0.000406	 0.021994	 1.239262	 0.003811	 0.008988	-0.054268	-5.944288	-10.388130	 179.330900	 1.033560	-30.071890	-1.908890	-15.567620	 80.410870	 9.637177	-2.385833	 28.452760	 0.000004	 5.836208	-10.753190	-179.194800	-1.017612	-30.351770	 1.894963	 15.126480	 80.398410	-9.340300	 2.384658	 28.388730	 0.000004	 1.302983	 2.738419	-0.001826	 0.675463	 3.596553	 0.340865	-2.030672	-4.573275	-0.477243	-91.776150	 78.527470	 180.000000	 64.217580	 42.869490	-53.299340	-7.835383	 3.898266	-9.788583	-28.879040	 3.989732	-4.328745	-2.635965	 4.993658	 6.788941	-5.165319	 0.784187	 3.516649	-5.225038	 0.466231	 0.424329	-0.000002	-3.783157	-0.089647	-1.964058	 5.067024	 0.086898	 89.782160	 78.203870	 179.999900	-47.778430	 29.716720	 65.928990	-6.566318	 2.635897	 16.012040	 23.311550	-2.198188	 2.045849	 6.112037	 4.509576	-0.364401	 4.968462	 1.518543	-9.347576	 5.168945	 0.703820	 2.021906
-0.000404	 0.022218	 1.235788	 0.003815	 0.008978	-0.054166	-6.059869	-10.986950	 179.381600	 0.984278	-31.312080	-2.005437	-16.913150	 81.015480	 11.002100	-2.385833	 28.452760	 0.000004	 5.953129	-11.347230	-179.244200	-0.968987	-31.581310	 1.989460	 16.423610	 80.998960	-10.656260	 2.384658	 28.388730	 0.000004	 1.302058	 2.740890	-0.001874	 0.674911	 3.588043	 0.340717	-2.029057	-4.562449	-0.476614	-91.776150	 78.527450	 180.000000	 63.837620	 42.786950	-52.735490	-7.833086	 3.911274	-9.821690	-28.849100	 3.993747	-4.323936	-2.635965	 4.993658	 6.788941	-5.165319	 0.784187	 3.516649	-5.225038	 0.466231	 0.424329	-0.000002	-3.783157	-0.089647	-1.962693	 5.072192	 0.086926	 89.782100	 78.203890	 180.000000	-42.830460	 27.360750	 69.332690	-8.894435	 1.857727	 15.259760	 21.611140	-2.347336	 0.768607	 6.112037	 4.509576	-0.364401	 4.968462	 1.518543	-9.347576	 5.168945	 0.703820	 2.021906
-0.000404	 0.022402	 1.232021	 0.003821	 0.008957	-0.054114	-6.179800	-11.616770	 179.434700	 0.928969	-32.618040	-2.109900	-18.543800	 81.646680	 12.653290	-2.385833	 28.452760	 0.000004	 6.074498	-11.971650	-179.295900	-0.914495	-32.875120	 2.091633	 17.992450	 81.625690	-12.245080	 2.384658	 28.388730	 0.000004	 1.300994	 2.743465	-0.001886	 0.674281	 3.579190	 0.340550	-2.027231	-4.551184	-0.475929	-91.776190	 78.527420	-180.000000	 63.383820	 42.669180	-52.046830	-7.830077	 3.929597	-9.868315	-28.816860	 3.998070	-4.318672	-2.635965	 4.993658	 6.788941	-5.165319	 0.784187	 3.516649	-5.225038	 0.466231	 0.424329	-0.000002	-3.783157	-0.089647	-1.961121	 5.077549	 0.086948	 89.782100	 78.203920	 180.000000	-37.301140	 25.037210	 73.131880	-11.415600	 1.094159	 14.394440	 19.721410	-2.316190	-0.554982	 6.112037	 4.509576	-0.364401	 4.968462	 1.518543	-9.347576	 5.168945	 0.703820	 2.021906
